<?xml version="1.0" standalone="no"?>
<!DOCTYPE svg PUBLIC "-//W3C//DTD SVG 20010904//EN"
 "http://www.w3.org/TR/2001/REC-SVG-20010904/DTD/svg10.dtd">
<svg version="1.0" xmlns="http://www.w3.org/2000/svg"
 width="261.000000pt" height="209.000000pt" viewBox="0 0 261.000000 209.000000"
 preserveAspectRatio="xMidYMid meet">

<g transform="translate(0.000000,209.000000) scale(0.100000,-0.100000)"
fill="#000000" stroke="none">
<path d="M0 1550 l0 -540 288 -1 c158 0 297 -2 310 -3 23 -3 31 19 9 27 -9 3
-9 8 -1 18 5 8 9 47 9 87 -2 67 0 72 19 72 27 0 43 11 44 30 9 103 41 200 66
200 5 0 21 -10 34 -22 l25 -23 -7 37 c-7 37 9 63 24 38 6 -9 19 -7 56 10 40
19 65 22 133 21 l83 -2 -6 36 c-5 25 -3 37 6 40 7 3 54 0 103 -6 83 -10 162
-17 225 -20 14 0 44 5 67 12 49 15 62 8 67 -36 2 -18 11 -31 25 -36 11 -5 21
-16 21 -25 0 -10 7 -25 16 -35 8 -9 17 -34 20 -55 3 -21 9 -43 14 -50 6 -6 8
-19 4 -27 -5 -13 1 -15 33 -13 21 2 40 5 43 6 3 1 12 3 20 4 9 0 14 9 12 23
-7 50 162 163 266 178 100 14 238 -32 302 -100 14 -14 40 -36 59 -47 l34 -22
56 62 c31 34 73 69 94 77 l37 15 0 305 0 305 -1305 0 -1305 0 0 -540z m1728
-232 c-3 -7 -11 -13 -18 -13 -7 0 -15 6 -17 13 -3 7 4 12 17 12 13 0 20 -5 18
-12z"/>
<path d="M1075 1346 c22 -7 42 -12 44 -10 9 8 -8 15 -45 19 l-39 5 40 -14z"/>
<path d="M950 1323 c-16 -4 -50 -64 -50 -88 0 -12 15 -15 66 -15 41 0 63 4 59
10 -3 6 -12 10 -18 10 -7 0 -23 9 -37 19 -21 17 -23 22 -12 45 6 14 11 25 9
25 -1 -1 -9 -3 -17 -6z"/>
<path d="M1615 1300 c-3 -5 -1 -10 4 -10 6 0 11 5 11 10 0 6 -2 10 -4 10 -3 0
-8 -4 -11 -10z"/>
<path d="M1117 1289 c7 -7 15 -10 18 -7 3 3 -2 9 -12 12 -14 6 -15 5 -6 -5z"/>
<path d="M1132 1275 c-20 -11 -21 -13 -7 -19 32 -12 57 -7 53 11 -4 21 -18 24
-46 8z"/>
<path d="M1220 1280 c0 -6 7 -10 15 -10 8 0 15 2 15 4 0 2 -7 6 -15 10 -8 3
-15 1 -15 -4z"/>
<path d="M2331 1277 c-32 -16 -91 -103 -91 -133 0 -34 31 -93 52 -100 26 -8
81 13 108 41 18 19 21 31 16 59 -4 20 -13 42 -21 50 -8 8 -15 28 -15 44 0 40
-19 54 -49 39z"/>
<path d="M2486 1259 c-8 -12 -13 -26 -10 -31 4 -5 6 -44 5 -87 -1 -75 0 -78
31 -107 32 -30 82 -64 93 -64 3 0 5 53 5 118 l0 118 -27 -1 c-24 0 -29 5 -33
35 -6 43 -40 53 -64 19z"/>
<path d="M2098 1253 c-10 -3 -18 -8 -18 -13 0 -4 -13 -13 -29 -18 -24 -9 -29
-17 -33 -50 -2 -22 2 -54 9 -71 13 -31 13 -31 33 -11 11 11 20 25 20 30 0 6 4
10 9 10 5 0 12 13 16 30 4 16 11 32 16 35 11 7 12 52 2 58 -5 2 -16 2 -25 0z"/>
<path d="M1066 1235 c-4 -12 5 -15 52 -14 l57 0 -50 14 c-27 8 -51 14 -51 15
-1 0 -4 -7 -8 -15z"/>
<path d="M1455 1240 c-3 -5 3 -10 14 -10 11 0 23 5 26 10 3 6 -3 10 -14 10
-11 0 -23 -4 -26 -10z"/>
<path d="M695 1169 c-4 -6 2 -13 14 -16 11 -3 19 -9 16 -13 -3 -5 4 -12 15
-15 22 -7 44 -50 34 -66 -3 -5 -17 -9 -31 -9 -18 0 -24 -4 -19 -15 3 -9 0 -15
-9 -15 -34 0 -21 -34 22 -58 12 -7 13 -14 5 -28 -9 -16 -6 -21 20 -34 18 -8
33 -21 34 -28 1 -7 0 -8 -2 -3 -3 6 -12 7 -20 4 -7 -3 -11 -9 -8 -14 3 -5 -9
-9 -25 -9 -39 0 -43 -30 -6 -50 14 -7 25 -17 25 -22 0 -4 9 -8 19 -8 24 0 39
-19 17 -21 -37 -3 -59 -16 -50 -30 3 -6 -2 -17 -12 -24 -15 -11 -16 -15 -4
-15 9 -1 5 -5 -8 -11 -13 -5 -21 -13 -18 -18 4 -5 -4 -7 -16 -3 -21 5 -22 4
-9 -11 16 -20 41 -22 41 -4 0 6 8 0 18 -15 9 -16 20 -28 23 -28 13 0 -3 -38
-17 -44 -8 -3 -14 -12 -14 -21 0 -8 -4 -15 -10 -15 -16 0 -11 -27 6 -34 9 -3
26 -6 39 -6 12 0 94 -18 181 -39 88 -22 211 -52 274 -67 63 -14 131 -33 150
-40 52 -20 210 -34 383 -34 179 0 247 -7 247 -26 0 -21 -78 -27 -258 -21 -160
5 -285 25 -337 55 -10 5 -26 7 -35 5 -21 -5 -206 38 -305 71 -130 44 -180 56
-282 67 -100 11 -233 5 -233 -11 0 -4 10 -6 21 -3 16 4 20 2 17 -8 -5 -16 -78
-25 -78 -10 0 7 -23 11 -55 11 -30 0 -63 4 -73 9 -9 5 -42 22 -72 37 -63 31
-135 79 -235 158 -63 50 -70 53 -73 34 -2 -12 3 -25 11 -29 8 -5 22 -21 32
-35 l18 -27 -32 22 -31 22 0 -88 c0 -79 2 -91 22 -108 26 -22 128 -29 205 -15
24 4 43 4 43 0 0 -5 -19 -12 -42 -16 -66 -11 -81 -12 -113 -3 -18 6 -33 5 -39
-1 -6 -6 -19 -11 -31 -11 -84 -5 423 -48 579 -49 33 0 5 15 -62 35 -35 10 -59
22 -54 27 12 12 256 11 320 -1 29 -6 119 -28 200 -50 81 -21 171 -44 200 -51
55 -13 79 -29 34 -23 -181 23 -541 63 -561 62 -25 -1 -25 -1 4 -9 17 -5 158
-28 315 -50 157 -23 380 -56 495 -75 116 -19 278 -43 360 -55 237 -32 265 -36
271 -42 8 -8 -24 -68 -36 -68 -6 0 -16 11 -22 25 -13 29 -60 41 -101 26 -16
-6 -43 -11 -62 -11 -19 0 -46 -5 -61 -10 -18 -7 -180 -10 -463 -8 -529 3 -642
1 -704 -13 -45 -11 -51 -10 -80 12 -30 23 -41 24 -167 24 -74 0 -184 -3 -245
-7 -60 -4 -131 -7 -157 -7 -44 -1 -48 -3 -48 -26 l0 -25 1305 0 1305 0 0 50
c0 28 -3 50 -7 50 -28 1 -263 32 -333 43 -47 9 -123 18 -169 22 -53 5 -79 10
-70 16 8 5 26 9 40 9 25 0 26 2 23 56 l-2 57 -249 1 c-244 2 -251 2 -430 39
-101 21 -193 42 -205 47 -28 13 213 6 377 -10 61 -6 147 -8 192 -5 72 6 84 10
98 31 16 25 35 26 72 6 31 -17 78 -15 164 7 41 11 103 22 139 26 82 9 140 37
133 63 -3 14 2 21 20 26 39 9 41 33 5 45 -42 15 -251 35 -363 36 l-90 0 -10
-40 c-6 -22 -17 -51 -24 -65 -8 -14 -14 -27 -13 -30 1 -3 -6 -5 -15 -5 -11 0
-24 13 -32 31 -17 39 -80 65 -106 44 -10 -9 -15 -9 -15 -1 0 6 25 23 55 36 60
28 68 41 32 50 -16 4 -61 -8 -128 -35 -132 -53 -217 -79 -309 -94 -9 -1 -22
-6 -29 -10 -36 -23 -141 -11 -126 13 3 5 -2 11 -10 15 -21 8 -19 23 5 29 10 3
22 17 26 32 5 22 2 31 -14 44 -12 9 -23 30 -25 49 -2 17 -7 35 -10 38 -3 4 -2
15 3 24 10 18 -7 43 -26 39 -22 -4 -33 2 -28 15 3 8 1 17 -5 21 -6 3 -11 15
-11 27 0 15 5 19 20 15 23 -6 24 -3 9 24 -8 15 -7 24 2 36 12 13 14 13 20 -4
7 -16 8 -15 8 5 1 12 5 22 10 22 6 0 9 9 8 19 0 11 -4 18 -8 15 -4 -2 -12 3
-19 11 -11 13 -10 18 6 31 10 9 14 13 7 9 -7 -3 -22 4 -34 16 -16 16 -18 21
-6 16 14 -5 16 -1 12 29 -3 22 0 32 6 28 11 -6 38 23 39 42 0 8 -43 11 -147
11 -82 -1 -198 2 -260 6 -75 5 -114 3 -118 -4z m85 -29 c0 -5 -2 -10 -4 -10
-3 0 -8 5 -11 10 -3 6 -1 10 4 10 6 0 11 -4 11 -10z m40 -15 c0 -8 7 -15 16
-15 8 0 13 -4 9 -10 -3 -5 -12 -7 -19 -4 -16 6 -29 44 -15 44 5 0 9 -7 9 -15z
m70 -21 c0 -8 -6 -11 -15 -8 -8 4 -15 12 -15 20 0 8 6 11 15 8 8 -4 15 -12 15
-20z m60 -8 c0 -3 -4 -8 -10 -11 -5 -3 -10 -1 -10 4 0 6 5 11 10 11 6 0 10 -2
10 -4z m164 -55 c-7 -9 -24 13 -24 32 0 21 1 21 13 -3 8 -14 12 -27 11 -29z
m-229 29 c3 -5 1 -10 -4 -10 -6 0 -11 5 -11 10 0 6 2 10 4 10 3 0 8 -4 11 -10z
m215 -44 c0 -3 -4 -8 -10 -11 -5 -3 -10 -1 -10 4 0 6 5 11 10 11 6 0 10 -2 10
-4z m95 -56 c3 -5 1 -10 -4 -10 -6 0 -11 5 -11 10 0 6 2 10 4 10 3 0 8 -4 11
-10z m-170 -40 c3 -5 1 -10 -4 -10 -6 0 -11 5 -11 10 0 6 2 10 4 10 3 0 8 -4
11 -10z m-182 -55 c17 -24 17 -25 -1 -25 -11 0 -23 7 -26 16 -15 40 0 45 27 9z
m65 -11 c18 -8 32 -17 32 -19 0 -7 -64 15 -74 25 -15 15 6 13 42 -6z m91 -17
c6 -8 8 -16 5 -19 -6 -7 -54 14 -54 25 0 12 37 8 49 -6z m-19 -172 c0 -8 -4
-15 -10 -15 -5 0 -7 7 -4 15 4 8 8 15 10 15 2 0 4 -7 4 -15z m-865 -135 c3 -6
1 -10 -4 -10 -6 0 -11 5 -11 11 0 5 -4 8 -9 5 -5 -3 -12 1 -15 9 -4 13 -2 13
14 5 10 -5 22 -15 25 -20z"/>
<path d="M2445 1010 c-8 -13 3 -30 21 -30 18 0 18 14 0 29 -10 8 -16 9 -21 1z"/>
<path d="M2324 946 c-11 -8 -66 -18 -125 -23 -93 -9 -111 -13 -143 -38 -20
-15 -36 -31 -36 -35 0 -16 66 -31 170 -41 231 -20 306 -22 361 -9 l54 13 -31
13 c-17 7 -83 17 -145 21 -107 7 -114 9 -117 30 -2 14 4 26 17 33 27 14 47 50
29 50 -8 0 -23 -6 -34 -14z"/>
<path d="M2131 273 c0 -15 4 -37 8 -47 11 -29 24 -2 16 34 -9 40 -25 48 -24
13z"/>
</g>
</svg>
